<svg width="200" height="200" viewBox="0 0 200 200" fill="none" xmlns="http://www.w3.org/2000/svg">
<path d="M5.24018 197.137L99.0021 101.026C99.5994 100.436 99.6878 99.5027 99.2117 98.811C93.5103 90.8508 82.9888 89.4704 79.09 84.1214C67.5409 68.2777 64.6102 59.3098 59.6471 59.8652C59.3009 59.915 58.9823 60.0831 58.7457 60.341L24.8761 95.0621C5.38987 115.021 2.58902 159.013 2.08339 195.853C2.08004 196.603 2.53308 197.279 3.22777 197.562C3.92243 197.845 4.71912 197.676 5.24018 197.137Z" fill="#017CEE"/>
<path d="M197.131 194.765L101.021 100.996C100.43 100.397 99.4944 100.309 98.8019 100.787C90.8417 106.492 89.4612 117.01 84.1125 120.908C68.2685 132.458 59.3006 135.388 59.856 140.351C59.9067 140.696 60.0746 141.014 60.3319 141.249L95.0529 175.119C115.012 194.605 159.004 197.406 195.844 197.912C196.59 197.912 197.262 197.461 197.544 196.771C197.827 196.08 197.664 195.288 197.131 194.765Z" fill="#00AD46"/>
<path d="M95.0538 175.129C84.1431 164.484 79.0869 143.428 99.9969 100.008C66.0042 115.2 54.0923 135.169 59.95 140.887L95.0538 175.129Z" fill="#04D659"/>
<path d="M194.757 2.87737L100.998 98.9878C100.4 99.5773 100.311 100.512 100.789 101.203C106.494 109.163 117.008 110.544 120.91 115.893C132.46 131.737 135.393 140.704 140.353 140.149C140.7 140.1 141.018 139.932 141.255 139.673L175.124 104.952C194.61 84.9936 197.411 41.0015 197.917 4.16137C197.918 3.41158 197.465 2.73598 196.77 2.45373C196.075 2.17148 195.279 2.33908 194.757 2.87737Z" fill="#00C7D4"/>
<path d="M175.14 104.951C164.496 115.862 143.439 120.918 100.016 100.008C115.208 134.001 135.177 145.913 140.895 140.055L175.14 104.951Z" fill="#11E1EE"/>
<path d="M2.86193 5.24856L98.9723 99.0072C99.5625 99.6045 100.496 99.6929 101.188 99.2168C109.148 93.5118 110.528 82.9937 115.877 79.0952C131.721 67.5458 140.689 64.6152 140.134 59.6522C140.083 59.3062 139.915 58.9879 139.658 58.7508L104.937 24.8812C84.9781 5.39491 40.986 2.59406 4.14593 2.08842C3.39447 2.08367 2.71595 2.53723 2.4331 3.23342C2.15022 3.92958 2.3201 4.72787 2.86193 5.24856Z" fill="#E43921"/>
<path d="M104.953 24.8848C115.864 35.5293 120.92 56.5856 100.01 100.009C134.003 84.8171 145.915 64.8452 140.057 59.1304L104.953 24.8848Z" fill="#FF7557"/>
<path d="M24.8759 95.066C35.5204 84.1554 56.5767 79.0992 99.9998 100.009C84.8081 66.0162 64.8396 54.1044 59.1215 59.9623L24.8759 95.066Z" fill="#0CB6FF"/>
<path d="M100.013 104.183C102.328 104.183 104.205 102.307 104.205 99.992C104.205 97.6772 102.328 95.8008 100.013 95.8008C97.6987 95.8008 95.822 97.6772 95.822 99.992C95.822 102.307 97.6987 104.183 100.013 104.183Z" fill="#4A4848"/>
</svg>
