<svg width="200" height="200" viewBox="0 0 200 200" fill="none" xmlns="http://www.w3.org/2000/svg">
<path d="M95.6895 199.912C71.3659 199.027 56.3108 191.803 52.4804 179.178L52.0352 177.711L51.9727 152.961C51.9013 124.635 51.9264 124.061 53.4318 119.55C56.1789 111.32 62.6751 106.013 72.8345 103.701L75.0809 103.189L103.015 103.065C123.028 102.976 131.326 102.876 132.281 102.711C137.875 101.745 141.544 100.299 144.989 97.702C149.104 94.5999 152.501 89.29 154.019 83.5863C155.159 79.3026 155.129 79.7705 155.252 64.7229L155.366 50.7339H165.426H175.487L177.44 51.2803C187.906 54.2077 195.505 64.1397 198.74 79.1207C199.985 84.8828 199.998 85.096 200 99.7953C200.002 114.101 199.996 114.226 198.998 118.918C198.017 123.53 196.733 127.283 194.815 131.146C190.945 138.937 185.24 144.21 178.026 146.663C173.905 148.064 177.355 147.947 136.809 148.063L100.28 148.168V151.494V154.82L124.502 154.918L148.725 155.015L148.822 166.95C148.876 173.514 148.853 179.448 148.77 180.137C148.571 181.802 147.866 183.778 146.856 185.499C145.817 187.271 142.662 190.441 140.52 191.864C134.015 196.188 124.096 198.824 111.024 199.703C106.625 199.999 100.397 200.084 95.6895 199.912ZM129.288 184.447C133.957 183.689 137.299 179.113 136.529 174.532C135.895 170.753 132.982 167.83 129.23 167.207C123.504 166.257 118.296 171.524 119.315 177.235C120.056 181.39 123.382 184.315 127.726 184.632C127.887 184.644 128.59 184.561 129.288 184.447ZM25.206 149.146C19.7117 148.145 14.301 144.81 10.4775 140.066C3.23545 131.082 -0.420466 116.104 0.0384837 97.2986C0.324491 85.5796 2.07371 76.8803 5.63216 69.4798C10.219 59.9406 17.0723 54.2836 26.3241 52.3998C28.3506 51.9872 28.4521 51.9861 64.1437 52.0004C83.8269 52.0083 100.076 51.9593 100.252 51.8914C100.532 51.7838 100.573 51.3477 100.573 48.463C100.573 46.6452 100.551 45.1368 100.524 45.1109C100.497 45.0851 89.5754 45.019 76.2531 44.9641L52.0307 44.8644L51.9804 32.2554C51.9253 18.4452 51.9142 18.6053 53.0947 16.0691C57.1871 7.27669 69.2421 1.93467 88.5595 0.353406C89.9562 0.239081 93.7361 0.093795 96.9592 0.0305277C118.346 -0.38927 134.034 3.52755 142.28 11.3458C143.194 12.2119 144.385 13.5048 144.926 14.2188C146.158 15.8422 147.69 18.9417 148.277 20.9951L148.725 22.5603V48.5818C148.725 72.8713 148.701 74.7269 148.371 76.4619C147.946 78.7007 146.924 81.8464 146.072 83.5389C143.122 89.3986 137.687 93.6201 130.482 95.6477C125.803 96.9643 127.928 96.8779 96.9592 97.0125C66.2044 97.1461 68.0627 97.0744 63.7512 98.2948C55.3767 100.665 49.2245 107.198 46.7251 116.375C45.6016 120.5 45.6265 120.114 45.5035 135.255L45.389 149.342L36.0126 149.374C28.9344 149.398 26.2857 149.342 25.206 149.146ZM76.4069 32.0999C79.9618 30.4272 82.1026 26.5063 81.459 22.8468C80.8653 19.4712 78.5512 16.7773 75.4105 15.8057C70.3912 14.2529 65.154 17.4571 64.2279 22.6473C63.4747 26.8684 65.9122 30.9778 70.0346 32.4369C70.9559 32.763 71.5483 32.8291 73.1275 32.782C74.8481 32.7308 75.239 32.6495 76.4069 32.0999Z" fill="#FED142"/>
<path d="M25.206 149.146C19.7117 148.145 14.301 144.81 10.4775 140.066C3.23545 131.082 -0.420466 116.104 0.0384837 97.2986C0.324491 85.5796 2.07371 76.8802 5.63216 69.4798C10.219 59.9406 17.0723 54.2836 26.3241 52.3998C28.3506 51.9872 28.4521 51.9861 64.1437 52.0004C83.8269 52.0082 100.076 51.9592 100.252 51.8914C100.532 51.7838 100.573 51.3477 100.573 48.463C100.573 46.6452 100.551 45.1367 100.524 45.1109C100.497 45.0851 89.5754 45.019 76.2531 44.9641L52.0307 44.8644L51.9804 32.2554C51.9253 18.4452 51.9142 18.6053 53.0947 16.0691C57.1871 7.27669 69.2421 1.93467 88.5595 0.353406C89.9562 0.239081 93.7361 0.093795 96.9592 0.0305277C118.346 -0.38927 134.034 3.52755 142.28 11.3458C143.194 12.2119 144.385 13.5048 144.926 14.2188C146.158 15.8422 147.69 18.9417 148.277 20.9951L148.725 22.5603V48.5818C148.725 72.8713 148.701 74.7269 148.371 76.4619C147.946 78.7007 146.924 81.8464 146.072 83.5389C143.122 89.3986 137.687 93.6201 130.482 95.6477C125.803 96.9643 127.928 96.8779 96.9592 97.0124C66.2044 97.1461 68.0627 97.0743 63.7512 98.2948C55.3767 100.665 49.2245 107.198 46.7251 116.375C45.6016 120.5 45.6265 120.114 45.5035 135.255L45.389 149.342L36.0126 149.374C28.9344 149.398 26.2857 149.342 25.206 149.146ZM76.4069 32.0999C79.9618 30.4272 82.1026 26.5063 81.459 22.8468C80.8653 19.4712 78.5512 16.7772 75.4105 15.8057C70.3912 14.2529 65.154 17.4571 64.2279 22.6473C63.4747 26.8684 65.9122 30.9778 70.0346 32.4369C70.9559 32.763 71.5483 32.8291 73.1275 32.782C74.8481 32.7308 75.239 32.6495 76.4069 32.0999Z" fill="#3571A3"/>
</svg>
