<?xml version="1.0" encoding="UTF-8"?>
<svg version="1.1" xmlns="http://www.w3.org/2000/svg" width="96" height="96">
<path d="M0 0 C2.34342507 1.76245094 3.3190776 3.53114522 5 6 C3.16551865 11.39553338 1.14621742 14.17622925 -3.37890625 17.640625 C-5.26486998 19.09273627 -5.26486998 19.09273627 -7 22 C-7.66 22 -8.32 22 -9 22 C-10.01574506 22.98400303 -11.01313265 23.9870376 -12 25 C-13.31209244 25.92666529 -14.6479831 26.82012151 -16 27.6875 C-20.71457957 30.76087946 -25.215722 34.08185028 -29.71484375 37.4609375 C-32 39 -32 39 -34 39 C-34 39.66 -34 40.32 -34 41 C-34.78375 41.268125 -35.5675 41.53625 -36.375 41.8125 C-39.28114923 42.84814432 -39.28114923 42.84814432 -41 46 C-41.33 45.67 -41.66 45.34 -42 45 C-42.66 45.66 -43.32 46.32 -44 47 C-46.08814724 48.29307862 -48.17855826 49.53711002 -50.3125 50.75 C-50.93406982 51.10344482 -51.55563965 51.45688965 -52.19604492 51.82104492 C-60.47739735 56.46325602 -68.98275058 60.6301518 -78.09765625 63.359375 C-80.0639744 63.96168216 -80.0639744 63.96168216 -81.99609375 65.078125 C-84 66 -84 66 -88 66 C-87.875 64.25 -87.875 64.25 -87 62 C-85.02053408 60.63636792 -83.0180755 59.30581356 -81 58 C-80.4225 57.236875 -79.845 56.47375 -79.25 55.6875 C-75.84353487 51.61866665 -71.5283326 48.73751117 -67 46 C-66.34 46 -65.68 46 -65 46 C-65 45.01 -65 44.02 -65 43 C-64.01 43 -63.02 43 -62 43 C-62 42.34 -62 41.68 -62 41 C-60.3125 39.7734375 -60.3125 39.7734375 -58 38.375 C-53.79215191 35.67042369 -50.53265271 32.65303274 -47.078125 29.0625 C-43.34107544 25.35354856 -39.1630713 22.21235573 -35 19 C-33.99839844 18.21625 -32.99679688 17.4325 -31.96484375 16.625 C-29.24355811 14.50069274 -26.49768535 12.41087976 -23.74267578 10.33056641 C-21.9249296 8.94268231 -20.13329918 7.52455521 -18.33984375 6.10546875 C-17.12329935 5.17329883 -15.90587414 4.24227712 -14.6875 3.3125 C-14.13739258 2.86600098 -13.58728516 2.41950195 -13.02050781 1.95947266 C-8.29185203 -1.57500676 -5.47902414 -1.39672532 0 0 Z " fill="#2073EA" transform="translate(88,24)"/>
<path d="M0 0 C3.38180659 1.51291347 5.11529977 3.11233582 7.375 6.0625 C8.06856381 8.79625515 8.23051448 11.22095148 8.375 14.0625 C7.50875 14.56910156 7.50875 14.56910156 6.625 15.0859375 C5.8825 15.53195313 5.14 15.97796875 4.375 16.4375 C3.6325 16.87835937 2.89 17.31921875 2.125 17.7734375 C1.5475 18.19882812 0.97 18.62421875 0.375 19.0625 C0.375 19.7225 0.375 20.3825 0.375 21.0625 C-0.945 21.0625 -2.265 21.0625 -3.625 21.0625 C-3.625 21.7225 -3.625 22.3825 -3.625 23.0625 C-4.615 23.3925 -5.605 23.7225 -6.625 24.0625 C-7.285 24.7225 -7.945 25.3825 -8.625 26.0625 C-10.37781815 27.1208053 -12.16908241 28.0864091 -13.96875 29.0625 C-15.80054302 30.0781448 -15.80054302 30.0781448 -17.625 32.0625 C-23.81478102 36.0625 -23.81478102 36.0625 -26.625 36.0625 C-26.625 36.7225 -26.625 37.3825 -26.625 38.0625 C-27.93837396 39.0885734 -29.27164105 40.08977325 -30.625 41.0625 C-30.625 41.3925 -30.625 41.7225 -30.625 42.0625 C-32.74892506 42.7325834 -34.87417524 43.39846797 -37 44.0625 C-38.18335937 44.43375 -39.36671875 44.805 -40.5859375 45.1875 C-43.625 46.0625 -43.625 46.0625 -45.625 46.0625 C-45.955 46.7225 -46.285 47.3825 -46.625 48.0625 C-48.69140625 48.6953125 -48.69140625 48.6953125 -51.1875 49.1875 C-52.42693359 49.43886719 -52.42693359 49.43886719 -53.69140625 49.6953125 C-54.32949219 49.81648438 -54.96757813 49.93765625 -55.625 50.0625 C-54.88854627 46.68995487 -54.10416604 45.44984507 -51.625 43.0625 C-50.7896875 41.70125 -50.7896875 41.70125 -49.9375 40.3125 C-47.46032141 36.83105982 -44.78731983 34.39764228 -41.52734375 31.67578125 C-39.6120337 30.11017894 -39.6120337 30.11017894 -38.00390625 28.35546875 C-36.625 27.0625 -36.625 27.0625 -34.625 27.0625 C-34.625 26.4025 -34.625 25.7425 -34.625 25.0625 C-33.965 25.0625 -33.305 25.0625 -32.625 25.0625 C-32.5425 24.27875 -32.46 23.495 -32.375 22.6875 C-31.625 20.0625 -31.625 20.0625 -29.75 18.9375 C-28.698125 18.504375 -28.698125 18.504375 -27.625 18.0625 C-26.61440704 17.07320638 -25.61551392 16.07189694 -24.625 15.0625 C-22.26602749 13.17281244 -19.81498537 11.40843354 -17.375 9.625 C-16.73175781 9.14740234 -16.08851562 8.66980469 -15.42578125 8.17773438 C-4.41879947 0.10520951 -4.41879947 0.10520951 0 0 Z " fill="#2073EA" transform="translate(55.625,5.9375)"/>
<path d="M0 0 C3.95381283 1.34789074 6.33528698 3.55387392 8.75 6.9375 C9.9375 10.5 9.9375 10.5 9.75 13.9375 C6.93394282 17.58180929 3.72169639 19.69705588 -0.25 21.9375 C-0.930625 22.453125 -1.61125 22.96875 -2.3125 23.5 C-4.25 24.9375 -4.25 24.9375 -6.3125 25.9375 C-8.30589814 26.81637801 -8.30589814 26.81637801 -9.5625 28.4375 C-12.12012599 30.71094533 -14.96792797 31.10307491 -18.25 31.9375 C-19.16394531 32.29457031 -20.07789062 32.65164062 -21.01953125 33.01953125 C-24.80976137 34.09656157 -27.71369266 33.93149126 -31.625 33.5625 C-32.87023438 33.45164063 -34.11546875 33.34078125 -35.3984375 33.2265625 C-36.33945312 33.13117188 -37.28046875 33.03578125 -38.25 32.9375 C-36.98786958 29.15110875 -35.59654649 28.89645404 -32.25 26.9375 C-31.59 25.9475 -30.93 24.9575 -30.25 23.9375 C-29.59 23.9375 -28.93 23.9375 -28.25 23.9375 C-27.92 23.2775 -27.59 22.6175 -27.25 21.9375 C-25.64352114 20.10152416 -24.42252721 19.01592146 -22.1875 18 C-20.09586907 17.09652452 -20.09586907 17.09652452 -19.3125 15 C-17.88111546 12.22143002 -15.92641529 11.44727273 -13.25 9.9375 C-12.92 9.2775 -12.59 8.6175 -12.25 7.9375 C-11.59 7.9375 -10.93 7.9375 -10.25 7.9375 C-9.59 6.6175 -8.93 5.2975 -8.25 3.9375 C-7.26 3.9375 -6.27 3.9375 -5.25 3.9375 C-4.92 2.9475 -4.59 1.9575 -4.25 0.9375 C-2.25 -0.0625 -2.25 -0.0625 0 0 Z " fill="#2073EA" transform="translate(86.25,56.0625)"/>
<path d="M0 0 C2 1 2 1 2 1 Z " fill="#1E73E8" transform="translate(70,87)"/>
<path d="M0 0 C2 1 2 1 2 1 Z " fill="#1E71E7" transform="translate(12,74)"/>
<path d="" fill="#1E73E8" transform="translate(0,0)"/>
<path d="M0 0 C2 1 2 1 2 1 Z " fill="#1E73E9" transform="translate(91,26)"/>
<path d="" fill="#1E73E8" transform="translate(0,0)"/>
<path d="" fill="#1F72E8" transform="translate(0,0)"/>
<path d="" fill="#1F72E8" transform="translate(0,0)"/>
<path d="" fill="#1E73EA" transform="translate(0,0)"/>
<path d="" fill="#1E73E8" transform="translate(0,0)"/>
<path d="" fill="#1E71E9" transform="translate(0,0)"/>
<path d="" fill="#1E73E8" transform="translate(0,0)"/>
<path d="" fill="#1E73EA" transform="translate(0,0)"/>
<path d="" fill="#1E73E8" transform="translate(0,0)"/>
<path d="" fill="#1E73EA" transform="translate(0,0)"/>
<path d="" fill="#1E6FE4" transform="translate(0,0)"/>
<path d="" fill="#1D70E6" transform="translate(0,0)"/>
<path d="" fill="#1E71E7" transform="translate(0,0)"/>
<path d="" fill="#2073EB" transform="translate(0,0)"/>
<path d="" fill="#1E73E8" transform="translate(0,0)"/>
<path d="" fill="#1F72EA" transform="translate(0,0)"/>
<path d="" fill="#1E71E7" transform="translate(0,0)"/>
<path d="" fill="#1E73EA" transform="translate(0,0)"/>
<path d="" fill="#1E73EA" transform="translate(0,0)"/>
<path d="" fill="#1E73E8" transform="translate(0,0)"/>
<path d="" fill="#1F72E8" transform="translate(0,0)"/>
<path d="" fill="#1E73EA" transform="translate(0,0)"/>
<path d="" fill="#1E73EA" transform="translate(0,0)"/>
<path d="" fill="#1E73E8" transform="translate(0,0)"/>
</svg>
