<svg width="122" height="35" viewBox="0 0 122 35" fill="none" xmlns="http://www.w3.org/2000/svg">
<path d="M7.72266 0.300781C10.0547 0.300781 11.9766 0.582031 13.4883 1.14453C15.0117 1.70703 16.1426 2.55664 16.8809 3.69336C17.6191 4.83008 17.9883 6.26562 17.9883 8C17.9883 9.17188 17.7656 10.1973 17.3203 11.0762C16.875 11.9551 16.2891 12.6992 15.5625 13.3086C14.8359 13.918 14.0508 14.416 13.207 14.8027L20.7656 26H14.7188L8.58398 16.1387H5.68359V26H0.234375V0.300781H7.72266ZM7.33594 4.76562H5.68359V11.709H7.44141C9.24609 11.709 10.5352 11.4102 11.3086 10.8125C12.0938 10.2031 12.4863 9.3125 12.4863 8.14062C12.4863 6.92188 12.0645 6.05469 11.2207 5.53906C10.3887 5.02344 9.09375 4.76562 7.33594 4.76562ZM29.8289 5.94336C32.4656 5.94336 34.4871 6.51758 35.8934 7.66602C37.2996 8.81445 38.0027 10.5605 38.0027 12.9043V26H34.2586L33.2215 23.3281H33.0809C32.5184 24.0312 31.9441 24.6055 31.3582 25.0508C30.7723 25.4961 30.0984 25.8242 29.3367 26.0352C28.575 26.2461 27.6492 26.3516 26.5594 26.3516C25.3992 26.3516 24.3563 26.1289 23.4305 25.6836C22.5164 25.2383 21.7957 24.5586 21.2684 23.6445C20.741 22.7188 20.4773 21.5469 20.4773 20.1289C20.4773 18.043 21.2098 16.5078 22.6746 15.5234C24.1395 14.5273 26.3367 13.9766 29.2664 13.8711L32.6766 13.7656V12.9043C32.6766 11.873 32.407 11.1172 31.868 10.6367C31.3289 10.1562 30.5789 9.91602 29.618 9.91602C28.6688 9.91602 27.7371 10.0508 26.823 10.3203C25.909 10.5898 24.9949 10.9297 24.0809 11.3398L22.3055 7.71875C23.3484 7.16797 24.5145 6.73438 25.8035 6.41797C27.1043 6.10156 28.4461 5.94336 29.8289 5.94336ZM32.6766 16.8945L30.6023 16.9648C28.868 17.0117 27.6609 17.3223 26.9813 17.8965C26.3133 18.4707 25.9793 19.2266 25.9793 20.1641C25.9793 20.9844 26.2195 21.5703 26.7 21.9219C27.1805 22.2617 27.8074 22.4316 28.5809 22.4316C29.7293 22.4316 30.6961 22.0918 31.4813 21.4121C32.2781 20.7324 32.6766 19.7656 32.6766 18.5117V16.8945Z" fill="#021C31"/>
<path d="M51.8648 6.17188C54.1734 6.17188 56.025 7.01562 57.4195 8.70312C58.8258 10.3906 59.5289 12.8984 59.5289 16.2266C59.5289 18.4297 59.2008 20.2871 58.5445 21.7988C57.9 23.2988 56.9918 24.4355 55.8199 25.209C54.6598 25.9707 53.3063 26.3516 51.7594 26.3516C50.775 26.3516 49.9195 26.2227 49.193 25.9648C48.4664 25.707 47.8453 25.373 47.3297 24.9629C46.8141 24.541 46.3805 24.084 46.0289 23.5918H45.7828C45.8414 24.0605 45.8941 24.582 45.941 25.1562C45.9996 25.7188 46.0289 26.2344 46.0289 26.7031V34.6309H41.8805V6.54102H45.2555L45.8355 9.23047H46.0289C46.3922 8.67969 46.8316 8.16992 47.3473 7.70117C47.8746 7.23242 48.5074 6.86328 49.2457 6.59375C49.9957 6.3125 50.8688 6.17188 51.8648 6.17188ZM50.7574 9.54688C49.6207 9.54688 48.7066 9.77539 48.0152 10.2324C47.3355 10.6777 46.8375 11.3516 46.5211 12.2539C46.2164 13.1562 46.0523 14.2871 46.0289 15.6465V16.2266C46.0289 17.668 46.1754 18.8926 46.4684 19.9004C46.773 20.8965 47.2711 21.6582 47.9625 22.1855C48.6656 22.7012 49.6148 22.959 50.8102 22.959C51.818 22.959 52.65 22.6836 53.3063 22.1328C53.9742 21.582 54.4723 20.7969 54.8004 19.7773C55.1285 18.7578 55.2926 17.5566 55.2926 16.1738C55.2926 14.0762 54.9176 12.4473 54.1676 11.2871C53.4293 10.127 52.2926 9.54688 50.7574 9.54688ZM79.7367 16.2266C79.7367 17.8438 79.5258 19.2793 79.1039 20.5332C78.682 21.7871 78.0668 22.8477 77.2582 23.7148C76.4496 24.5703 75.477 25.2266 74.3402 25.6836C73.2035 26.1289 71.9203 26.3516 70.4906 26.3516C69.1547 26.3516 67.9301 26.1289 66.8168 25.6836C65.7035 25.2266 64.7367 24.5703 63.9164 23.7148C63.1078 22.8477 62.4809 21.7871 62.0355 20.5332C61.5902 19.2793 61.3676 17.8438 61.3676 16.2266C61.3676 14.082 61.7367 12.2656 62.475 10.7773C63.225 9.27734 64.2914 8.13477 65.6742 7.34961C67.057 6.56445 68.7035 6.17188 70.6137 6.17188C72.4066 6.17188 73.9887 6.56445 75.3598 7.34961C76.7309 8.13477 77.8031 9.27734 78.5766 10.7773C79.35 12.2773 79.7367 14.0938 79.7367 16.2266ZM65.6215 16.2266C65.6215 17.6445 65.7914 18.8574 66.1312 19.8652C66.4828 20.873 67.0219 21.6465 67.7484 22.1855C68.475 22.7129 69.4125 22.9766 70.5609 22.9766C71.7094 22.9766 72.6469 22.7129 73.3734 22.1855C74.1 21.6465 74.6332 20.873 74.973 19.8652C75.3129 18.8574 75.4828 17.6445 75.4828 16.2266C75.4828 14.8086 75.3129 13.6074 74.973 12.623C74.6332 11.627 74.1 10.8711 73.3734 10.3555C72.6469 9.82812 71.7035 9.56445 70.5434 9.56445C68.8324 9.56445 67.5844 10.1387 66.7992 11.2871C66.0141 12.4355 65.6215 14.082 65.6215 16.2266ZM92.5441 6.17188C92.8723 6.17188 93.2297 6.18945 93.6164 6.22461C94.0031 6.25977 94.3371 6.30664 94.6184 6.36523L94.2316 10.2324C93.9855 10.1621 93.6809 10.1094 93.3176 10.0742C92.966 10.0391 92.6496 10.0215 92.3684 10.0215C91.6301 10.0215 90.927 10.1445 90.259 10.3906C89.591 10.625 88.9992 10.9883 88.4836 11.4805C87.968 11.9609 87.5637 12.5645 87.2707 13.291C86.9777 14.0176 86.8313 14.8613 86.8313 15.8223V26H82.6828V6.54102H85.9172L86.4797 9.96875H86.673C87.0598 9.27734 87.5402 8.64453 88.1145 8.07031C88.6887 7.49609 89.3449 7.03906 90.0832 6.69922C90.8332 6.34766 91.6535 6.17188 92.5441 6.17188ZM103.664 23.0117C104.203 23.0117 104.736 22.9648 105.264 22.8711C105.791 22.7656 106.271 22.6426 106.705 22.502V25.6309C106.248 25.8301 105.656 26 104.93 26.1406C104.203 26.2812 103.447 26.3516 102.662 26.3516C101.561 26.3516 100.57 26.1699 99.6914 25.8066C98.8125 25.4316 98.1152 24.793 97.5996 23.8906C97.084 22.9883 96.8262 21.7402 96.8262 20.1465V9.6875H94.1719V7.8418L97.0195 6.38281L98.373 2.2168H100.975V6.54102H106.547V9.6875H100.975V20.0938C100.975 21.0781 101.221 21.8105 101.713 22.291C102.205 22.7715 102.855 23.0117 103.664 23.0117ZM121.938 20.4453C121.938 21.7227 121.628 22.8008 121.007 23.6797C120.386 24.5586 119.477 25.2266 118.282 25.6836C117.098 26.1289 115.645 26.3516 113.923 26.3516C112.563 26.3516 111.391 26.252 110.407 26.0527C109.434 25.8652 108.514 25.5723 107.647 25.1738V21.6055C108.573 22.0391 109.61 22.4141 110.759 22.7305C111.919 23.0469 113.014 23.2051 114.046 23.2051C115.405 23.2051 116.384 22.9941 116.981 22.5723C117.579 22.1387 117.878 21.5645 117.878 20.8496C117.878 20.4277 117.755 20.0527 117.509 19.7246C117.274 19.3848 116.829 19.0391 116.173 18.6875C115.528 18.3242 114.579 17.8906 113.325 17.3867C112.095 16.8945 111.057 16.4023 110.214 15.9102C109.37 15.418 108.731 14.8262 108.298 14.1348C107.864 13.4316 107.647 12.5352 107.647 11.4453C107.647 9.72266 108.327 8.41602 109.686 7.52539C111.057 6.62305 112.868 6.17188 115.118 6.17188C116.313 6.17188 117.438 6.29492 118.493 6.54102C119.559 6.77539 120.602 7.12109 121.622 7.57812L120.321 10.6895C119.442 10.3027 118.557 9.98633 117.667 9.74023C116.788 9.48242 115.891 9.35352 114.977 9.35352C113.911 9.35352 113.096 9.51758 112.534 9.8457C111.983 10.1738 111.708 10.6426 111.708 11.252C111.708 11.709 111.843 12.0957 112.112 12.4121C112.382 12.7285 112.845 13.0449 113.501 13.3613C114.169 13.6777 115.095 14.0703 116.278 14.5391C117.438 14.9844 118.44 15.4531 119.284 15.9453C120.139 16.4258 120.796 17.0176 121.253 17.7207C121.71 18.4238 121.938 19.332 121.938 20.4453Z" fill="#0E87C3"/>
</svg>
